<svg id="google_play_imagen_-_telefono" data-name="google play imagen - telefono" xmlns="http://www.w3.org/2000/svg" viewBox="0 0 870 1858.5"><defs><style>.cls-1{fill:#363b47;}.cls-2{fill:#f9fafe;}.cls-3{fill:#232733;}.cls-4{fill:#a3b29f;}.cls-5{fill:#1c2230;}</style></defs><title>img-app</title><rect class="cls-1" width="870" height="1858.5" rx="92.7" ry="92.7"/><rect class="cls-2" x="25.5" y="26" width="819" height="1802" rx="65" ry="65"/><rect class="cls-3" x="105" y="146.5" width="45" height="5"/><rect class="cls-3" x="105" y="162" width="45" height="5"/><rect class="cls-3" x="105" y="177.5" width="45" height="5"/><polygon class="cls-3" points="145.12 312.35 159.61 326.84 159.62 326.83 173.36 340.57 187.85 326.09 159.62 297.86 145.12 312.35"/><rect class="cls-3" x="137.03" y="319.22" width="10.94" height="20.49" transform="translate(-191.23 197.26) rotate(-45)"/><path class="cls-3" d="M220.36,354.38l-5.49-78.45a18.82,18.82,0,0,0-20.08-17.46L116.34,264A18.82,18.82,0,0,0,98.88,284l5.49,78.45A18.82,18.82,0,0,0,124.45,380l78.45-5.49A18.82,18.82,0,0,0,220.36,354.38Zm-47-1.82-13.74-13.74-13.74,13.74L119.4,326.09l40.22-40.22,40.22,40.22Z"/><rect class="cls-4" x="99" y="1166" width="189" height="58" rx="29" ry="29"/><path class="cls-5" d="M109.21,1303.45h13.16v36h23v11.54H109.21Z"/><path class="cls-5" d="M148.43,1340.43v-.14c0-7.6,5.77-11.54,14.38-11.54a28.13,28.13,0,0,1,8.82,1.42v-.61c0-3.8-2.37-6-7.33-6a25.85,25.85,0,0,0-10.11,2l-2.65-9.09a36.88,36.88,0,0,1,14.86-2.85c6.58,0,11.06,1.56,14,4.48,2.78,2.71,3.94,6.51,3.94,11.67v21.1H171.57v-3.8a13.84,13.84,0,0,1-10.79,4.61C153.79,1351.76,148.43,1347.76,148.43,1340.43Zm23.34-2.78V1336a13.5,13.5,0,0,0-5-1c-3.73,0-5.9,1.83-5.9,4.55v.14c0,2.51,1.9,4,4.55,4C169.13,1343.69,171.77,1341.31,171.77,1337.65Z"/><path class="cls-5" d="M207.88,1340.43v-.14c0-7.6,5.77-11.54,14.38-11.54a28.13,28.13,0,0,1,8.82,1.42v-.61c0-3.8-2.37-6-7.33-6a25.85,25.85,0,0,0-10.11,2l-2.65-9.09a36.88,36.88,0,0,1,14.86-2.85c6.58,0,11.06,1.56,14,4.48,2.78,2.71,3.94,6.51,3.94,11.67v21.1H231v-3.8a13.84,13.84,0,0,1-10.79,4.61C213.24,1351.76,207.88,1347.76,207.88,1340.43Zm23.34-2.78V1336a13.5,13.5,0,0,0-5-1c-3.73,0-5.9,1.83-5.9,4.55v.14c0,2.51,1.9,4,4.55,4C228.57,1343.69,231.22,1341.31,231.22,1337.65Z"/><path class="cls-5" d="M245.74,1314.24h13.57l7.06,21.44,7.06-21.44h13.37l-14.66,37H260.4Z"/><path class="cls-5" d="M287.27,1332.76v-.14c0-10.72,7.67-19.2,18.52-19.2,12.69,0,18.53,9.3,18.53,20.09,0,.81,0,1.76-.07,2.65H299.69c1,4,3.94,6,7.94,6,3.05,0,5.5-1.15,8.14-3.73l7.13,5.9c-3.53,4.48-8.62,7.46-15.95,7.46C295.42,1351.83,287.27,1344.16,287.27,1332.76Zm25-3.19c-.47-4.07-2.85-6.65-6.38-6.65s-5.7,2.65-6.38,6.65Z"/><path class="cls-5" d="M329.82,1314.24h12.89v5.16c2.38-3.05,5.77-6,11-6,7.8,0,12.49,5.16,12.49,13.5v24H353.3v-19.88c0-4-2.1-6.17-5.16-6.17s-5.43,2.17-5.43,6.17v19.88H329.82Z"/><path class="cls-5" d="M375.08,1339.55v-14.93h-4.34v-10.38h4.34v-9.3H388v9.3h8.55v10.38H388V1337c0,2.58,1.15,3.66,3.53,3.66a11.31,11.31,0,0,0,4.89-1.22v10.11a18.38,18.38,0,0,1-9,2.1C379.7,1351.69,375.08,1348.3,375.08,1339.55Z"/><path class="cls-5" d="M401.82,1338.26v-24h12.89v19.88c0,4,2.1,6.17,5.22,6.17s5.36-2.17,5.36-6.17v-19.88h12.89v36.71H425.3v-5c-2.37,3.05-5.77,5.84-11,5.84C406.5,1351.76,401.82,1346.6,401.82,1338.26Z"/><path class="cls-5" d="M445.11,1314.24H458v7.4c2.1-5,5.5-8.28,11.6-8v13.57h-1.09c-6.72,0-10.52,3.87-10.52,12.35v11.4H445.11Z"/><path class="cls-5" d="M470.63,1340.43v-.14c0-7.6,5.77-11.54,14.38-11.54a28.13,28.13,0,0,1,8.82,1.42v-.61c0-3.8-2.37-6-7.33-6a25.85,25.85,0,0,0-10.11,2l-2.65-9.09a36.88,36.88,0,0,1,14.86-2.85c6.58,0,11.06,1.56,14,4.48,2.78,2.71,3.94,6.51,3.94,11.67v21.1H493.77v-3.8a13.84,13.84,0,0,1-10.79,4.61C476,1351.76,470.63,1347.76,470.63,1340.43Zm23.34-2.78V1336a13.5,13.5,0,0,0-5-1c-3.73,0-5.9,1.83-5.9,4.55v.14c0,2.51,1.9,4,4.55,4C491.32,1343.69,494,1341.31,494,1337.65Z"/><path class="cls-5" d="M530.55,1332.76v-.14c0-11.94,7.46-19.2,16.15-19.2a14,14,0,0,1,11.26,5.29v-17.3h12.89v49.54H558v-4.89c-2.51,3.05-5.7,5.7-11.2,5.7C538.08,1351.76,530.55,1344.5,530.55,1332.76Zm27.62-.14v-.14c0-4.82-3.33-8.28-7.46-8.28s-7.53,3.39-7.53,8.28v.14c0,4.89,3.39,8.35,7.53,8.35S558.17,1337.51,558.17,1332.63Z"/><path class="cls-5" d="M576.29,1332.76v-.14c0-10.72,7.67-19.2,18.52-19.2,12.69,0,18.53,9.3,18.53,20.09,0,.81,0,1.76-.07,2.65H588.7c1,4,3.94,6,7.94,6,3.05,0,5.5-1.15,8.14-3.73l7.13,5.9c-3.53,4.48-8.62,7.46-15.95,7.46C584.43,1351.83,576.29,1344.16,576.29,1332.76Zm25-3.19c-.47-4.07-2.85-6.65-6.38-6.65s-5.7,2.65-6.38,6.65Z"/><path class="cls-5" d="M637.9,1301.41h12.89v49.54H637.9Z"/><path class="cls-5" d="M656.16,1340.43v-.14c0-7.6,5.77-11.54,14.38-11.54a28.13,28.13,0,0,1,8.82,1.42v-.61c0-3.8-2.37-6-7.33-6a25.85,25.85,0,0,0-10.11,2l-2.65-9.09a36.88,36.88,0,0,1,14.86-2.85c6.58,0,11.06,1.56,14,4.48,2.78,2.71,3.94,6.51,3.94,11.67v21.1H679.29v-3.8a13.84,13.84,0,0,1-10.79,4.61C661.52,1351.76,656.16,1347.76,656.16,1340.43Zm23.34-2.78V1336a13.5,13.5,0,0,0-5-1c-3.73,0-5.9,1.83-5.9,4.55v.14c0,2.51,1.9,4,4.55,4C676.85,1343.69,679.5,1341.31,679.5,1337.65Z"/><path class="cls-5" d="M105.61,1425.32l7.33-8.75a24.46,24.46,0,0,0,15.4,5.7c3.53,0,5.43-1.22,5.43-3.26v-.14c0-2-1.56-3.05-8-4.55-10.11-2.31-17.91-5.16-17.91-14.93v-.14c0-8.82,7-15.2,18.39-15.2,8.07,0,14.38,2.17,19.54,6.31l-6.58,9.3a23.82,23.82,0,0,0-13.3-4.68c-3.19,0-4.75,1.36-4.75,3.05v.14c0,2.17,1.63,3.12,8.21,4.61,10.92,2.38,17.71,5.9,17.71,14.79v.14c0,9.7-7.67,15.47-19.2,15.47C119.45,1433.19,111.45,1430.55,105.61,1425.32Z"/><path class="cls-5" d="M150.87,1421.86v-.14c0-7.6,5.77-11.54,14.38-11.54a28.13,28.13,0,0,1,8.82,1.42V1411c0-3.8-2.37-6-7.33-6a25.85,25.85,0,0,0-10.11,2L154,1398a36.88,36.88,0,0,1,14.86-2.85c6.58,0,11.06,1.56,14,4.48,2.78,2.71,3.94,6.51,3.94,11.67v21.1H174v-3.8a13.84,13.84,0,0,1-10.79,4.61C156.23,1433.19,150.87,1429.19,150.87,1421.86Zm23.34-2.78v-1.7a13.5,13.5,0,0,0-5-1c-3.73,0-5.9,1.83-5.9,4.55v.14c0,2.51,1.9,4,4.55,4C171.57,1425.12,174.21,1422.74,174.21,1419.08Z"/><path class="cls-5" d="M193.35,1395.67h12.89v5.16c2.38-3.05,5.77-6,11-6,7.8,0,12.49,5.16,12.49,13.5v24H216.83V1412.5c0-4-2.1-6.17-5.16-6.17s-5.43,2.17-5.43,6.17v19.88H193.35Z"/><path class="cls-5" d="M238.62,1421v-14.93h-4.34v-10.38h4.34v-9.3h12.89v9.3h8.55v10.38h-8.55v12.42c0,2.58,1.15,3.66,3.53,3.66a11.31,11.31,0,0,0,4.89-1.22V1431a18.38,18.38,0,0,1-9,2.1C243.23,1433.13,238.62,1429.73,238.62,1421Z"/><path class="cls-5" d="M265.62,1382.84h13.44v9.5H265.62Zm.27,12.83h12.89v36.71H265.9Z"/><path class="cls-5" d="M284.62,1414.19v-.14c0-11.94,7.46-19.2,16.15-19.2a14,14,0,0,1,11.26,5.29v-17.3h12.89v49.54H312v-4.89c-2.51,3.05-5.7,5.7-11.2,5.7C292.16,1433.19,284.62,1425.93,284.62,1414.19Zm27.62-.14v-.14c0-4.82-3.33-8.28-7.46-8.28s-7.53,3.39-7.53,8.28v.14c0,4.89,3.39,8.35,7.53,8.35S312.24,1418.94,312.24,1414.06Z"/><path class="cls-5" d="M330,1421.86v-.14c0-7.6,5.77-11.54,14.38-11.54a28.13,28.13,0,0,1,8.82,1.42V1411c0-3.8-2.37-6-7.33-6a25.85,25.85,0,0,0-10.11,2l-2.65-9.09a36.88,36.88,0,0,1,14.86-2.85c6.58,0,11.06,1.56,14,4.48,2.78,2.71,3.94,6.51,3.94,11.67v21.1H353.16v-3.8a13.84,13.84,0,0,1-10.79,4.61C335.38,1433.19,330,1429.19,330,1421.86Zm23.34-2.78v-1.7a13.5,13.5,0,0,0-5-1c-3.73,0-5.9,1.83-5.9,4.55v.14c0,2.51,1.9,4,4.55,4C350.72,1425.12,353.36,1422.74,353.36,1419.08Z"/><path class="cls-5" d="M371.14,1414.19v-.14c0-11.94,7.46-19.2,16.15-19.2a14,14,0,0,1,11.26,5.29v-17.3h12.89v49.54H398.56v-4.89c-2.51,3.05-5.7,5.7-11.2,5.7C378.68,1433.19,371.14,1425.93,371.14,1414.19Zm27.62-.14v-.14c0-4.82-3.33-8.28-7.46-8.28s-7.53,3.39-7.53,8.28v.14c0,4.89,3.39,8.35,7.53,8.35S398.76,1418.94,398.76,1414.06Z"/><path class="cls-5" d="M435.68,1414.19v-.14c0-10.38,8.08-19.13,19.68-19.13,7.53,0,12.55,3.26,15.67,8.21l-8.75,6.51c-1.76-2.44-3.73-3.87-6.85-3.87-4.14,0-7.19,3.66-7.19,8.14v.14c0,4.75,3,8.35,7.33,8.35,3.05,0,5-1.42,7.06-3.8l8.62,6.24c-3.39,5-8.28,8.41-16.35,8.41A18.94,18.94,0,0,1,435.68,1414.19Z"/><path class="cls-5" d="M473.27,1414.19v-.14c0-10.45,8.55-19.2,20.36-19.2s20.22,8.62,20.22,19.07v.14c0,10.45-8.55,19.2-20.36,19.2S473.27,1424.64,473.27,1414.19Zm28,0v-.14c0-4.48-3.26-8.28-7.8-8.28s-7.67,3.73-7.67,8.14v.14c0,4.48,3.26,8.28,7.8,8.28S501.3,1418.6,501.3,1414.19Z"/><path class="cls-5" d="M519.28,1395.67h12.89v5c2.38-3.05,5.77-5.84,10.92-5.84,4.89,0,8.62,2.17,10.58,6,3.19-3.66,6.92-6,12.28-6,7.8,0,12.55,4.89,12.55,13.44v24.09H565.63v-19.95c0-4-2-6.11-5-6.11s-5.29,2.1-5.29,6.11v19.95H542.42v-19.95c0-4-2-6.11-5-6.11s-5.22,2.1-5.22,6.11v19.95H519.28Z"/><path class="cls-5" d="M585.17,1382.84h13.44v9.5H585.17Zm.27,12.83h12.89v36.71H585.45Z"/><path class="cls-5" d="M604,1414.19v-.14c0-10.72,7.67-19.2,18.52-19.2,12.69,0,18.53,9.3,18.53,20.09,0,.81,0,1.76-.07,2.65H616.46c1,4,3.94,6,7.94,6,3.05,0,5.5-1.15,8.14-3.73l7.13,5.9c-3.53,4.48-8.62,7.46-15.95,7.46C612.18,1433.26,604,1425.59,604,1414.19Zm25-3.19c-.47-4.07-2.85-6.65-6.38-6.65s-5.7,2.65-6.38,6.65Z"/><path class="cls-5" d="M646.59,1395.67h12.89v5.16c2.38-3.05,5.77-6,11-6,7.8,0,12.49,5.16,12.49,13.5v24H670.06V1412.5c0-4-2.1-6.17-5.16-6.17s-5.43,2.17-5.43,6.17v19.88H646.59Z"/><path class="cls-5" d="M688.32,1423.9l17-18H688.93v-10.25h33.45v8.48l-17,18h17v10.25H688.32Z"/><path class="cls-5" d="M726,1421.86v-.14c0-7.6,5.77-11.54,14.38-11.54a28.13,28.13,0,0,1,8.82,1.42V1411c0-3.8-2.37-6-7.33-6a25.85,25.85,0,0,0-10.11,2L729.1,1398a36.88,36.88,0,0,1,14.86-2.85c6.58,0,11.06,1.56,14,4.48,2.78,2.71,3.94,6.51,3.94,11.67v21.1H749.12v-3.8a13.84,13.84,0,0,1-10.79,4.61C731.34,1433.19,726,1429.19,726,1421.86Zm23.34-2.78v-1.7a13.5,13.5,0,0,0-5-1c-3.73,0-5.9,1.83-5.9,4.55v.14c0,2.51,1.9,4,4.55,4C746.68,1425.12,749.32,1422.74,749.32,1419.08Z"/><path class="cls-5" d="M107,1495.63v-.14c0-10.38,8.08-19.13,19.68-19.13,7.53,0,12.55,3.26,15.67,8.21l-8.75,6.51c-1.76-2.44-3.73-3.87-6.85-3.87-4.14,0-7.19,3.66-7.19,8.14v.14c0,4.75,3,8.35,7.33,8.35,3.05,0,5-1.42,7.06-3.8l8.62,6.24c-3.39,5-8.28,8.41-16.35,8.41A18.94,18.94,0,0,1,107,1495.63Z"/><path class="cls-5" d="M144.56,1495.63v-.14c0-10.45,8.55-19.2,20.36-19.2s20.22,8.62,20.22,19.07v.14c0,10.45-8.55,19.2-20.36,19.2S144.56,1506.08,144.56,1495.63Zm28,0v-.14c0-4.48-3.26-8.28-7.8-8.28s-7.67,3.73-7.67,8.14v.14c0,4.48,3.26,8.28,7.8,8.28S172.59,1500,172.59,1495.63Z"/><path class="cls-5" d="M190.57,1477.1h12.89v5.16c2.38-3.05,5.77-6,11-6,7.8,0,12.49,5.16,12.49,13.5v24H214v-19.88c0-4-2.1-6.17-5.16-6.17s-5.43,2.17-5.43,6.17v19.88H190.57Z"/><path class="cls-5" d="M252.12,1501.12v-24H265V1497c0,4,2.1,6.17,5.22,6.17s5.36-2.17,5.36-6.17V1477.1h12.89v36.71H275.6v-5c-2.37,3.05-5.77,5.84-11,5.84C256.8,1514.63,252.12,1509.47,252.12,1501.12Z"/><path class="cls-5" d="M295.41,1477.1H308.3v5.16c2.38-3.05,5.77-6,11-6,7.8,0,12.49,5.16,12.49,13.5v24H318.89v-19.88c0-4-2.1-6.17-5.16-6.17s-5.43,2.17-5.43,6.17v19.88H295.41Z"/><path class="cls-5" d="M354.38,1506.75l7.33-8.75a24.46,24.46,0,0,0,15.4,5.7c3.53,0,5.43-1.22,5.43-3.26v-.14c0-2-1.56-3.05-8-4.55-10.11-2.31-17.91-5.16-17.91-14.93v-.14c0-8.82,7-15.2,18.39-15.2,8.07,0,14.38,2.17,19.54,6.31l-6.58,9.3a23.82,23.82,0,0,0-13.3-4.68c-3.19,0-4.75,1.36-4.75,3.05v.14c0,2.17,1.63,3.12,8.21,4.61,10.92,2.38,17.71,5.9,17.71,14.79v.14c0,9.7-7.67,15.47-19.2,15.47C368.22,1514.63,360.22,1512,354.38,1506.75Z"/><path class="cls-5" d="M401.75,1477.1h12.89v36.71H401.75Zm8.28-15.67,12,3.87-10,8.69H403Z"/><path class="cls-5" d="M438.8,1503.29v-.14c0-7.6,5.77-11.54,14.38-11.54A28.13,28.13,0,0,1,462,1493v-.61c0-3.8-2.37-6-7.33-6a25.85,25.85,0,0,0-10.11,2l-2.65-9.09a36.88,36.88,0,0,1,14.86-2.85c6.58,0,11.06,1.56,14,4.48,2.78,2.71,3.94,6.51,3.94,11.67v21.1H461.94V1510a13.84,13.84,0,0,1-10.79,4.61C444.16,1514.63,438.8,1510.62,438.8,1503.29Zm23.34-2.78v-1.7a13.5,13.5,0,0,0-5-1c-3.73,0-5.9,1.83-5.9,4.55v.14c0,2.51,1.9,4,4.55,4C459.49,1506.55,462.14,1504.17,462.14,1500.51Z"/><path class="cls-5" d="M500.82,1466.31h18.32c17,0,26.8,9.77,26.8,23.48v.14c0,13.71-10,23.88-27.07,23.88h-18Zm18.52,35.83c7.87,0,13.1-4.34,13.1-12V1490c0-7.6-5.23-12-13.1-12H514v24.16Z"/><path class="cls-5" d="M552,1464.28h13.44v9.5H552Zm.27,12.83h12.89v36.71H552.26Z"/><path class="cls-5" d="M570.85,1495.63v-.14c0-10.45,8.55-19.2,20.36-19.2s20.22,8.62,20.22,19.07v.14c0,10.45-8.55,19.2-20.36,19.2S570.85,1506.08,570.85,1495.63Zm28,0v-.14c0-4.48-3.26-8.28-7.8-8.28s-7.67,3.73-7.67,8.14v.14c0,4.48,3.26,8.28,7.8,8.28S598.88,1500,598.88,1495.63Z"/><path class="cls-5" d="M613.94,1509.2l4.82-7.8a23.85,23.85,0,0,0,12.62,4.21c2.24,0,3.26-.68,3.26-2v-.14c0-1.42-2-2-5.9-3.12-7.26-1.9-13-4.34-13-11.74v-.14c0-7.8,6.24-12.15,14.73-12.15a28.71,28.71,0,0,1,15.13,4.27l-4.41,8.14c-3.8-2.1-7.94-3.39-10.86-3.39-2,0-3,.75-3,1.76v.14c0,1.42,2.1,2.1,6,3.26,7.26,2,13,4.55,13,11.67v.14c0,8.08-6,12.28-15,12.28A29.61,29.61,0,0,1,613.94,1509.2Z"/><path class="cls-5" d="M381.12,1614.88a3.35,3.35,0,0,0,1.16,1.28,9.28,9.28,0,0,0,2.33,1.09q1.49.5,3.77,1a36,36,0,0,1,4.45,1.41,11.11,11.11,0,0,1,3.22,1.89,7.47,7.47,0,0,1,1.94,2.6,8.49,8.49,0,0,1,.66,3.49,9.41,9.41,0,0,1-.84,4.06,8.59,8.59,0,0,1-2.33,3,10.24,10.24,0,0,1-3.58,1.87,15.7,15.7,0,0,1-4.6.64,20.1,20.1,0,0,1-7.06-1.25,19.27,19.27,0,0,1-6.24-3.85l3.37-4a19.59,19.59,0,0,0,4.69,3.08,12.92,12.92,0,0,0,5.38,1.07,7,7,0,0,0,4.12-1.09,3.46,3.46,0,0,0,1.53-3,3.85,3.85,0,0,0-.3-1.55,3.1,3.1,0,0,0-1.1-1.25,9.25,9.25,0,0,0-2.19-1.07,37.37,37.37,0,0,0-3.63-1,38.11,38.11,0,0,1-4.55-1.32,11.57,11.57,0,0,1-3.33-1.82,7.23,7.23,0,0,1-2.06-2.64,9.05,9.05,0,0,1-.71-3.78,8.73,8.73,0,0,1,.81-3.8,8.89,8.89,0,0,1,2.24-2.94,9.94,9.94,0,0,1,3.42-1.89,13.89,13.89,0,0,1,4.37-.66,18.28,18.28,0,0,1,6.31,1,18.77,18.77,0,0,1,5.26,3l-3,4.24a19.56,19.56,0,0,0-4.33-2.44,11.75,11.75,0,0,0-4.33-.84,5.9,5.9,0,0,0-3.83,1.12,3.39,3.39,0,0,0-1.37,2.71A3.84,3.84,0,0,0,381.12,1614.88Z"/><path class="cls-5" d="M419.35,1636.8v-3a10.29,10.29,0,0,1-3.14,2.46,9.92,9.92,0,0,1-4.65,1,11,11,0,0,1-3.28-.48,8.06,8.06,0,0,1-2.71-1.41,6.87,6.87,0,0,1-2.57-5.54v-.09a7.55,7.55,0,0,1,.73-3.42,6.64,6.64,0,0,1,2-2.42,9.1,9.1,0,0,1,3.1-1.44,15.1,15.1,0,0,1,3.9-.48,21.44,21.44,0,0,1,3.71.27,22.72,22.72,0,0,1,2.94.73v-.59a4.79,4.79,0,0,0-1.53-3.83,6.53,6.53,0,0,0-4.4-1.32,14.69,14.69,0,0,0-3.65.41,23.83,23.83,0,0,0-3.24,1.09l-1.5-4.42a25.37,25.37,0,0,1,4.1-1.46,20.29,20.29,0,0,1,5.06-.55q5.38,0,8,2.67t2.6,7.5v14.26Zm.14-10.21a14.15,14.15,0,0,0-2.48-.68,16.24,16.24,0,0,0-3-.27,7.09,7.09,0,0,0-4.06,1,3.27,3.27,0,0,0-1.46,2.87v.09a3,3,0,0,0,1.34,2.64,5.75,5.75,0,0,0,3.3.91,8.41,8.41,0,0,0,2.53-.36,6.54,6.54,0,0,0,2-1,4.67,4.67,0,0,0,1.34-1.6,4.47,4.47,0,0,0,.48-2.07Z"/><path class="cls-5" d="M436.94,1636.8h-5.56v-24.06h5.56v3.78a13.64,13.64,0,0,1,1.3-1.63,8.4,8.4,0,0,1,1.64-1.36,8.3,8.3,0,0,1,2-.94,8.49,8.49,0,0,1,2.52-.35,8,8,0,0,1,6.32,2.51,9.78,9.78,0,0,1,2.23,6.74v15.31h-5.56v-13.64a6.39,6.39,0,0,0-1.33-4.34,4.75,4.75,0,0,0-3.77-1.52,5.12,5.12,0,0,0-3.88,1.57,6.11,6.11,0,0,0-1.49,4.39Z"/><path class="cls-5" d="M490.91,1630.9a9.78,9.78,0,0,1-2.21,3.53,9,9,0,0,1-3.37,2.12,12.7,12.7,0,0,1-4.33.71,11.75,11.75,0,0,1-6.15-1.48,13.67,13.67,0,0,1-4.06-3.67l3.69-3.78a12.82,12.82,0,0,0,2.89,2.76,6.25,6.25,0,0,0,3.53,1,4.73,4.73,0,0,0,3.67-1.53,6.84,6.84,0,0,0,1.39-4.72V1604.9h5.74V1626A14,14,0,0,1,490.91,1630.9Z"/><path class="cls-5" d="M514.54,1612.74h5.56v24.06h-5.56V1633a11.8,11.8,0,0,1-3,3,7.64,7.64,0,0,1-4.54,1.26,8,8,0,0,1-6.32-2.51,9.78,9.78,0,0,1-2.23-6.74v-15.31h5.56v13.64a6.39,6.39,0,0,0,1.33,4.34,4.74,4.74,0,0,0,3.77,1.52,5.11,5.11,0,0,0,3.88-1.57,6.11,6.11,0,0,0,1.49-4.39Z"/><path class="cls-5" d="M541.75,1636.8v-3a10.29,10.29,0,0,1-3.14,2.46,9.92,9.92,0,0,1-4.65,1,11,11,0,0,1-3.28-.48,8.06,8.06,0,0,1-2.71-1.41,6.87,6.87,0,0,1-2.57-5.54v-.09a7.55,7.55,0,0,1,.73-3.42,6.64,6.64,0,0,1,2-2.42,9.1,9.1,0,0,1,3.1-1.44,15.1,15.1,0,0,1,3.9-.48,21.44,21.44,0,0,1,3.71.27,22.72,22.72,0,0,1,2.94.73v-.59a4.79,4.79,0,0,0-1.53-3.83,6.53,6.53,0,0,0-4.4-1.32,14.69,14.69,0,0,0-3.65.41,23.83,23.83,0,0,0-3.24,1.09l-1.5-4.42a25.37,25.37,0,0,1,4.1-1.46,20.29,20.29,0,0,1,5.06-.55q5.38,0,8,2.67t2.6,7.5v14.26Zm.14-10.21a14.15,14.15,0,0,0-2.48-.68,16.24,16.24,0,0,0-3-.27,7.09,7.09,0,0,0-4.06,1,3.27,3.27,0,0,0-1.46,2.87v.09a3,3,0,0,0,1.34,2.64,5.75,5.75,0,0,0,3.3.91,8.41,8.41,0,0,0,2.53-.36,6.54,6.54,0,0,0,2-1,4.67,4.67,0,0,0,1.34-1.6,4.47,4.47,0,0,0,.48-2.07Z"/><path class="cls-5" d="M559.34,1636.8h-5.56v-24.06h5.56v3.78a13.64,13.64,0,0,1,1.3-1.63,8.4,8.4,0,0,1,1.64-1.36,8.3,8.3,0,0,1,2-.94,8.49,8.49,0,0,1,2.52-.35,8,8,0,0,1,6.32,2.51,9.78,9.78,0,0,1,2.23,6.74v15.31h-5.56v-13.64a6.39,6.39,0,0,0-1.33-4.34,4.75,4.75,0,0,0-3.77-1.52,5.12,5.12,0,0,0-3.88,1.57,6.11,6.11,0,0,0-1.49,4.39Z"/><path class="cls-5" d="M620,1620.35a9.74,9.74,0,0,1-2.74,3.42,12.24,12.24,0,0,1-4.07,2.07,17.05,17.05,0,0,1-5,.71H601.9v10.25h-5.56v-31.9h12.58a15.87,15.87,0,0,1,5,.75,10.71,10.71,0,0,1,3.83,2.17,9.57,9.57,0,0,1,2.42,3.37,11.07,11.07,0,0,1,.84,4.42A10.64,10.64,0,0,1,620,1620.35Zm-6.57-8.95a8,8,0,0,0-5-1.44H601.9v11.53h6.54a7.54,7.54,0,0,0,5.05-1.58,5.23,5.23,0,0,0,1.85-4.19A5.12,5.12,0,0,0,613.47,1611.4Z"/><path class="cls-5" d="M640.41,1636.8v-3a10.29,10.29,0,0,1-3.14,2.46,9.92,9.92,0,0,1-4.65,1,11,11,0,0,1-3.28-.48,8.06,8.06,0,0,1-2.71-1.41,6.87,6.87,0,0,1-2.57-5.54v-.09a7.55,7.55,0,0,1,.73-3.42,6.64,6.64,0,0,1,2-2.42,9.1,9.1,0,0,1,3.1-1.44,15.1,15.1,0,0,1,3.9-.48,21.44,21.44,0,0,1,3.71.27,22.72,22.72,0,0,1,2.94.73v-.59a4.79,4.79,0,0,0-1.53-3.83,6.53,6.53,0,0,0-4.4-1.32,14.69,14.69,0,0,0-3.65.41,23.83,23.83,0,0,0-3.24,1.09l-1.5-4.42a25.37,25.37,0,0,1,4.1-1.46,20.29,20.29,0,0,1,5.06-.55q5.38,0,8,2.67t2.6,7.5v14.26Zm.14-10.21a14.15,14.15,0,0,0-2.48-.68,16.24,16.24,0,0,0-3-.27,7.09,7.09,0,0,0-4.06,1,3.27,3.27,0,0,0-1.46,2.87v.09a3,3,0,0,0,1.34,2.64,5.75,5.75,0,0,0,3.3.91,8.41,8.41,0,0,0,2.53-.36,6.54,6.54,0,0,0,2-1,4.67,4.67,0,0,0,1.34-1.6,4.47,4.47,0,0,0,.48-2.07Z"/><path class="cls-5" d="M676.38,1630.1a12,12,0,0,1-2.51,3.94,10.44,10.44,0,0,1-3.6,2.44,11,11,0,0,1-4.17.82,8.85,8.85,0,0,1-4.92-1.28,12.66,12.66,0,0,1-3.24-3l0,3.74h-5.56v-33.27H658v13.22a12,12,0,0,1,3.27-3.21,8.6,8.6,0,0,1,4.87-1.3,10.81,10.81,0,0,1,4.14.82,10.47,10.47,0,0,1,3.57,2.44,12.29,12.29,0,0,1,2.52,3.94,13.94,13.94,0,0,1,1,5.33A14.2,14.2,0,0,1,676.38,1630.1Zm-5.17-8.54a7.38,7.38,0,0,0-1.48-2.44,6.53,6.53,0,0,0-2.19-1.55,6.6,6.6,0,0,0-2.67-.55,6.75,6.75,0,0,0-2.69.55,6.54,6.54,0,0,0-2.23,1.57,7.8,7.8,0,0,0-1.53,2.44,9.21,9.21,0,0,0,0,6.38,7.8,7.8,0,0,0,1.53,2.44,6.56,6.56,0,0,0,2.23,1.57,6.75,6.75,0,0,0,2.69.55,6.6,6.6,0,0,0,2.67-.55,6.53,6.53,0,0,0,2.19-1.55,7.38,7.38,0,0,0,1.48-2.44,9.71,9.71,0,0,0,0-6.43Z"/><path class="cls-5" d="M683.29,1636.8v-33.27h5.56v33.27Z"/><path class="cls-5" d="M719.36,1629.65a12.49,12.49,0,0,1-6.77,6.7,13.69,13.69,0,0,1-10.23,0,12.34,12.34,0,0,1-6.72-6.65,12.76,12.76,0,0,1,0-9.75,12.58,12.58,0,0,1,2.69-4,12.74,12.74,0,0,1,4.06-2.71,12.92,12.92,0,0,1,5.13-1,13.19,13.19,0,0,1,5.13,1,12.46,12.46,0,0,1,4.06,2.69,12.31,12.31,0,0,1,2.67,4,12.47,12.47,0,0,1,1,4.88A12.22,12.22,0,0,1,719.36,1629.65Zm-5.12-7.79a7.83,7.83,0,0,0-1.52-2.48,7.11,7.11,0,0,0-2.31-1.69,7.13,7.13,0,0,0-8.22,1.66,7.21,7.21,0,0,0-1.45,2.44,8.79,8.79,0,0,0-.5,3,8.46,8.46,0,0,0,.54,3,7.48,7.48,0,0,0,1.52,2.48,7.26,7.26,0,0,0,2.31,1.66,6.9,6.9,0,0,0,2.92.62,7.12,7.12,0,0,0,3-.62,7,7,0,0,0,2.29-1.66,7.2,7.2,0,0,0,1.45-2.44,8.81,8.81,0,0,0,.5-3A8.33,8.33,0,0,0,714.23,1621.85Z"/><path class="cls-5" d="M746.13,1604.9v31.9h-5.56v-31.9Z"/><path class="cls-5" d="M760.57,1604.9v31.9H755v-31.9Z"/><path class="cls-4" d="M118.77,1108.2a10.78,10.78,0,0,1-1.92,3.48,9,9,0,0,1-3,2.33,8.69,8.69,0,0,1-3.86.85,8.82,8.82,0,0,1-3.86-.83,8.63,8.63,0,0,1-3-2.31,10.73,10.73,0,0,1-1.89-3.46,14.15,14.15,0,0,1,0-8.62,10.76,10.76,0,0,1,1.92-3.5,9,9,0,0,1,3-2.33,8.69,8.69,0,0,1,3.86-.85,8.82,8.82,0,0,1,3.86.83,8.64,8.64,0,0,1,3,2.31,10.73,10.73,0,0,1,1.89,3.48,13.51,13.51,0,0,1,.67,4.3A13.31,13.31,0,0,1,118.77,1108.2Zm-4.43-7a7.24,7.24,0,0,0-.94-2.15,4.6,4.6,0,0,0-1.47-1.42,3.87,3.87,0,0,0-3.83,0,4.53,4.53,0,0,0-1.45,1.39,6.73,6.73,0,0,0-.92,2.13,10.83,10.83,0,0,0-.32,2.69,10.36,10.36,0,0,0,.33,2.69,7.19,7.19,0,0,0,.94,2.15,4.58,4.58,0,0,0,1.47,1.42,3.86,3.86,0,0,0,3.83,0,4.48,4.48,0,0,0,1.45-1.41,7,7,0,0,0,.92-2.13,10.65,10.65,0,0,0,.32-2.68A10.38,10.38,0,0,0,114.34,1101.24Z"/><path class="cls-4" d="M124.41,1093.31h13v4.08h-9l-.24,3.66q.64-.15,1.27-.26a9.37,9.37,0,0,1,1.51-.11,10.45,10.45,0,0,1,2.92.39,6.64,6.64,0,0,1,2.36,1.21,5.65,5.65,0,0,1,1.58,2.1,7.53,7.53,0,0,1,.58,3.1,7.74,7.74,0,0,1-.58,3.06,6.53,6.53,0,0,1-1.63,2.31,7.23,7.23,0,0,1-2.55,1.47,10.18,10.18,0,0,1-3.32.51,11,11,0,0,1-4.48-.84,12,12,0,0,1-3.45-2.31l2.81-3.35a11,11,0,0,0,2.42,1.69,5.8,5.8,0,0,0,2.63.61,4,4,0,0,0,2.59-.76,2.67,2.67,0,0,0,1-2.22,2.54,2.54,0,0,0-1-2.16,4.46,4.46,0,0,0-2.74-.76,7.64,7.64,0,0,0-1.89.23,10.54,10.54,0,0,0-1.65.56l-2.69-1.79Z"/><path class="cls-4" d="M170.46,1108.08a9.87,9.87,0,0,1-2.31,3.36,11,11,0,0,1-3.57,2.24,12.33,12.33,0,0,1-4.55.82h-8.26v-21.18H160a12.53,12.53,0,0,1,4.55.8,10.79,10.79,0,0,1,3.57,2.22,9.91,9.91,0,0,1,2.31,3.34,10.53,10.53,0,0,1,.82,4.16v.06A10.63,10.63,0,0,1,170.46,1108.08Zm-4.05-4.17a6.9,6.9,0,0,0-.47-2.57,6,6,0,0,0-1.3-2,5.77,5.77,0,0,0-2-1.32,7,7,0,0,0-2.6-.47h-3.6v12.77H160a7.19,7.19,0,0,0,2.6-.45,5.6,5.6,0,0,0,2-1.3,6.09,6.09,0,0,0,1.3-2,6.75,6.75,0,0,0,.47-2.57Z"/><path class="cls-4" d="M175.42,1114.49v-21.18h15.94v4.15H180v4.3h10v4.14H180v4.45h11.5v4.14Z"/><path class="cls-4" d="M225.49,1108.15a10.84,10.84,0,0,1-5.91,5.84,12.25,12.25,0,0,1-9,0,11.22,11.22,0,0,1-3.55-2.33,10.41,10.41,0,0,1-2.33-3.45,10.87,10.87,0,0,1-.83-4.25v-.06a10.7,10.7,0,0,1,.85-4.25,10.83,10.83,0,0,1,5.92-5.84,12.25,12.25,0,0,1,9,0,11.19,11.19,0,0,1,3.55,2.33,10.43,10.43,0,0,1,2.33,3.45,10.86,10.86,0,0,1,.83,4.25v.06A10.71,10.71,0,0,1,225.49,1108.15Zm-4-4.25a7.06,7.06,0,0,0-.47-2.57,6.34,6.34,0,0,0-3.37-3.55,6.22,6.22,0,0,0-2.57-.53,6.33,6.33,0,0,0-2.59.51,5.93,5.93,0,0,0-2,1.42,6.71,6.71,0,0,0-1.3,2.1,6.92,6.92,0,0,0-.47,2.56v.06a7,7,0,0,0,.47,2.57,6.39,6.39,0,0,0,3.36,3.56,6.18,6.18,0,0,0,2.59.53,6.37,6.37,0,0,0,2.57-.51,5.89,5.89,0,0,0,2-1.42,6.74,6.74,0,0,0,1.3-2.1,6.94,6.94,0,0,0,.47-2.56Z"/><path class="cls-4" d="M247.39,1112.64a10.05,10.05,0,0,1-1.92,1.2,9.94,9.94,0,0,1-2.28.76,13.73,13.73,0,0,1-2.78.26,11,11,0,0,1-4.33-.85,10.45,10.45,0,0,1-5.72-5.78,11.17,11.17,0,0,1-.82-4.27v-.06a11,11,0,0,1,.82-4.25,10.92,10.92,0,0,1,2.27-3.48,10.52,10.52,0,0,1,3.48-2.36,11.32,11.32,0,0,1,4.48-.86,14,14,0,0,1,2.71.24,11.33,11.33,0,0,1,2.22.67,9.64,9.64,0,0,1,1.85,1,12.65,12.65,0,0,1,1.57,1.33l-3,3.42a11.22,11.22,0,0,0-2.53-1.75,6.44,6.44,0,0,0-2.89-.63,5.86,5.86,0,0,0-4.42,1.94,6.65,6.65,0,0,0-1.27,2.1,7.16,7.16,0,0,0-.45,2.56v.06a7.27,7.27,0,0,0,.45,2.57,6.73,6.73,0,0,0,1.26,2.12,5.82,5.82,0,0,0,4.43,2,6.48,6.48,0,0,0,3.07-.67,11.91,11.91,0,0,0,2.5-1.82l3,3A15.29,15.29,0,0,1,247.39,1112.64Z"/><path class="cls-4" d="M262.4,1097.61v16.88h-4.66v-16.88h-6.44v-4.3h17.55v4.3Z"/><path class="cls-4" d="M289.88,1109.47a7.94,7.94,0,0,1-1.86,3,7.63,7.63,0,0,1-2.93,1.79,11.84,11.84,0,0,1-3.84.59,9.28,9.28,0,0,1-6.72-2.36q-2.45-2.36-2.45-7v-12.1h4.66v12a5.6,5.6,0,0,0,1.21,3.92,4.33,4.33,0,0,0,3.36,1.32,4.42,4.42,0,0,0,3.36-1.27,5.34,5.34,0,0,0,1.21-3.81v-12.13h4.66v12A12.28,12.28,0,0,1,289.88,1109.47Z"/><path class="cls-4" d="M312.69,1111.22a4.94,4.94,0,0,1-1.6,1.82,7.48,7.48,0,0,1-2.51,1.09,13.5,13.5,0,0,1-3.25.36H295.28v-21.18h9.82a8,8,0,0,1,5.12,1.48,4.85,4.85,0,0,1,1.86,4v.06a5.2,5.2,0,0,1-.23,1.6,5,5,0,0,1-.6,1.25,4.76,4.76,0,0,1-.87,1,5.92,5.92,0,0,1-1.07.73,7.14,7.14,0,0,1,2.89,1.89,4.84,4.84,0,0,1,1.05,3.31v.06A5.5,5.5,0,0,1,312.69,1111.22Zm-5.22-11.65a1.86,1.86,0,0,0-.79-1.62,3.89,3.89,0,0,0-2.27-.56h-4.6v4.48h4.3a4.85,4.85,0,0,0,2.45-.53,1.83,1.83,0,0,0,.91-1.71Zm1.18,8.47a2,2,0,0,0-.82-1.68,4.4,4.4,0,0,0-2.63-.62h-5.39v4.66h5.54a4.48,4.48,0,0,0,2.42-.56,1.92,1.92,0,0,0,.88-1.74Z"/><path class="cls-4" d="M330,1114.49l-4.54-6.78h-3.66v6.78h-4.66v-21.18h9.68a8.63,8.63,0,0,1,5.88,1.85,6.49,6.49,0,0,1,2.1,5.14v.06a6.64,6.64,0,0,1-1.25,4.19,7.28,7.28,0,0,1-3.28,2.38l5.17,7.56Zm.09-13.95a2.7,2.7,0,0,0-1-2.27,4.28,4.28,0,0,0-2.69-.76h-4.63v6.08h4.72a3.87,3.87,0,0,0,2.65-.82,2.77,2.77,0,0,0,.92-2.18Z"/><path class="cls-4" d="M339,1114.49v-21.18h15.94v4.15H343.6v4.3h10v4.14h-10v4.45h11.5v4.14Z"/><path class="cls-4" d="M360.45,1114.49H358.6v-4.84h4.87v4.08q0,3-1.45,4.31a6.07,6.07,0,0,1-4.14,1.35l-.39-1.91Q360.69,1117.15,360.45,1114.49Z"/><path class="cls-4" d="M381.61,1097.91a12.19,12.19,0,0,0-2.13,2.15l-3.27-2.63a18.14,18.14,0,0,1,1.59-1.89,8.83,8.83,0,0,1,1.72-1.39,7.5,7.5,0,0,1,2-.85,10.2,10.2,0,0,1,2.54-.29,9.21,9.21,0,0,1,3,.47,6.62,6.62,0,0,1,2.3,1.33,5.66,5.66,0,0,1,1.45,2.07,7,7,0,0,1,.5,2.69A7.51,7.51,0,0,1,391,1102a7.25,7.25,0,0,1-1,2,11.31,11.31,0,0,1-1.74,1.86q-1.06.92-2.45,2l-3.45,2.66h9.23v4H375.94v-3.68l7-5.77q1-.81,1.69-1.46a9.55,9.55,0,0,0,1.13-1.24,4.37,4.37,0,0,0,.63-1.15,3.66,3.66,0,0,0,.2-1.22,2.6,2.6,0,0,0-.79-2.05,3,3,0,0,0-2.06-.69A3.62,3.62,0,0,0,381.61,1097.91Z"/><path class="cls-4" d="M413.07,1108.2a10.78,10.78,0,0,1-1.92,3.48,9,9,0,0,1-3,2.33,8.69,8.69,0,0,1-3.86.85,8.82,8.82,0,0,1-3.86-.83,8.63,8.63,0,0,1-3-2.31,10.73,10.73,0,0,1-1.89-3.46,14.15,14.15,0,0,1,0-8.62,10.76,10.76,0,0,1,1.92-3.5,9,9,0,0,1,3-2.33,8.69,8.69,0,0,1,3.86-.85,8.82,8.82,0,0,1,3.86.83,8.64,8.64,0,0,1,3,2.31,10.73,10.73,0,0,1,1.89,3.48,13.51,13.51,0,0,1,.67,4.3A13.31,13.31,0,0,1,413.07,1108.2Zm-4.43-7a7.24,7.24,0,0,0-.94-2.15,4.6,4.6,0,0,0-1.47-1.42,3.87,3.87,0,0,0-3.83,0A4.53,4.53,0,0,0,401,1099a6.73,6.73,0,0,0-.92,2.13,10.83,10.83,0,0,0-.32,2.69,10.36,10.36,0,0,0,.33,2.69,7.19,7.19,0,0,0,.94,2.15,4.58,4.58,0,0,0,1.47,1.42,3.86,3.86,0,0,0,3.83,0,4.48,4.48,0,0,0,1.45-1.41,7,7,0,0,0,.92-2.13,10.65,10.65,0,0,0,.32-2.68A10.38,10.38,0,0,0,408.64,1101.24Z"/><path class="cls-4" d="M422.54,1097.91a12.19,12.19,0,0,0-2.13,2.15l-3.27-2.63a18.14,18.14,0,0,1,1.59-1.89,8.83,8.83,0,0,1,1.72-1.39,7.5,7.5,0,0,1,2-.85A10.2,10.2,0,0,1,425,1093a9.21,9.21,0,0,1,3,.47,6.62,6.62,0,0,1,2.3,1.33,5.66,5.66,0,0,1,1.45,2.07,7,7,0,0,1,.5,2.69A7.51,7.51,0,0,1,432,1102a7.25,7.25,0,0,1-1,2,11.31,11.31,0,0,1-1.74,1.86q-1.06.92-2.45,2l-3.45,2.66h9.23v4H416.87v-3.68l7-5.77q1-.81,1.69-1.46a9.55,9.55,0,0,0,1.13-1.24,4.37,4.37,0,0,0,.63-1.15,3.66,3.66,0,0,0,.2-1.22,2.6,2.6,0,0,0-.79-2.05,3,3,0,0,0-2.06-.69A3.62,3.62,0,0,0,422.54,1097.91Z"/><path class="cls-4" d="M441,1093.16h3.18v21.33h-4.6v-16.61l-3.69.91-1-3.81Z"/><path class="cls-2" d="M142.72,1200.15a4.37,4.37,0,0,1-1.21,1.56,5.45,5.45,0,0,1-1.85,1,8.08,8.08,0,0,1-2.39.33,10.66,10.66,0,0,1-3.61-.63,9.56,9.56,0,0,1-3.22-1.94l2.09-2.51a10.5,10.5,0,0,0,2.27,1.43,6.06,6.06,0,0,0,2.54.53,3.1,3.1,0,0,0,1.71-.4,1.27,1.27,0,0,0,.61-1.12v0a1.4,1.4,0,0,0-.13-.61,1.29,1.29,0,0,0-.48-.5,5.23,5.23,0,0,0-1-.46q-.64-.23-1.65-.48a20.14,20.14,0,0,1-2.21-.67,6.22,6.22,0,0,1-1.68-.91,3.68,3.68,0,0,1-1.07-1.34,4.67,4.67,0,0,1-.38-2v0a4.68,4.68,0,0,1,.41-2,4.51,4.51,0,0,1,1.15-1.53,5.19,5.19,0,0,1,1.77-1,7.15,7.15,0,0,1,2.27-.34,9.63,9.63,0,0,1,3.25.53,9.45,9.45,0,0,1,2.73,1.52l-1.84,2.67a11.73,11.73,0,0,0-2.12-1.16,5.42,5.42,0,0,0-2.07-.43,2.51,2.51,0,0,0-1.55.4,1.23,1.23,0,0,0-.52,1v0a1.45,1.45,0,0,0,.15.68,1.36,1.36,0,0,0,.54.52,5,5,0,0,0,1.07.44q.68.21,1.72.48a16.51,16.51,0,0,1,2.18.72,6.07,6.07,0,0,1,1.62,1,3.69,3.69,0,0,1,1,1.32,4.49,4.49,0,0,1,.34,1.82v0A5,5,0,0,1,142.72,1200.15Z"/><path class="cls-2" d="M158.22,1202.79l-1.47-3.61h-6.81l-1.47,3.61h-3.61l6.9-16.21H155l6.9,16.21Zm-4.88-12L151.2,1196h4.28Z"/><path class="cls-2" d="M175.7,1202.79l-7.8-10.24v10.24h-3.5v-16.1h3.27l7.54,9.91v-9.91h3.5v16.1Z"/><path class="cls-2" d="M189.87,1190v12.83h-3.54V1190h-4.9v-3.27h13.34V1190Z"/><path class="cls-2" d="M197.64,1202.79v-16.1h3.54v16.1Z"/><path class="cls-2" d="M219.42,1197.91a7.52,7.52,0,0,1-1.76,2.55,8.33,8.33,0,0,1-2.71,1.7,9.36,9.36,0,0,1-3.46.62h-6.28v-16.1h6.28a9.52,9.52,0,0,1,3.46.61,8.18,8.18,0,0,1,2.71,1.69,7.54,7.54,0,0,1,1.76,2.54,8,8,0,0,1,.62,3.16v0A8.11,8.11,0,0,1,219.42,1197.91Zm-3.08-3.17a5.23,5.23,0,0,0-.36-2,4.63,4.63,0,0,0-1-1.54,4.4,4.4,0,0,0-1.53-1,5.33,5.33,0,0,0-2-.36h-2.74v9.71h2.74a5.47,5.47,0,0,0,2-.34,4.26,4.26,0,0,0,1.53-1,4.67,4.67,0,0,0,1-1.52,5.12,5.12,0,0,0,.36-2Z"/><path class="cls-2" d="M235.18,1202.79l-1.47-3.61H226.9l-1.47,3.61h-3.61l6.9-16.21H232l6.9,16.21Zm-4.87-12-2.14,5.22h4.28Z"/><path class="cls-2" d="M255.58,1197.91a7.52,7.52,0,0,1-1.76,2.55,8.33,8.33,0,0,1-2.71,1.7,9.36,9.36,0,0,1-3.46.62h-6.28v-16.1h6.28a9.52,9.52,0,0,1,3.46.61,8.18,8.18,0,0,1,2.71,1.69,7.54,7.54,0,0,1,1.76,2.54,8,8,0,0,1,.62,3.16v0A8.11,8.11,0,0,1,255.58,1197.91Zm-3.08-3.17a5.23,5.23,0,0,0-.36-2,4.63,4.63,0,0,0-1-1.54,4.4,4.4,0,0,0-1.53-1,5.33,5.33,0,0,0-2-.36H244.9v9.71h2.74a5.47,5.47,0,0,0,2-.34,4.26,4.26,0,0,0,1.53-1,4.67,4.67,0,0,0,1-1.52,5.12,5.12,0,0,0,.36-2Z"/><path class="cls-5" d="M747.88,1128.14H721.62a6.38,6.38,0,0,1-6.38-6.38v-17.51a2,2,0,0,1,4,0v17.51a2.38,2.38,0,0,0,2.38,2.38h26.26a2.38,2.38,0,0,0,2.38-2.38v-17.51a2,2,0,0,1,4,0v17.51A6.38,6.38,0,0,1,747.88,1128.14Z"/><path class="cls-5" d="M743.5,1093.12a2,2,0,0,1-1.41-.59l-7.34-7.34-7.34,7.34a2,2,0,0,1-2.83-2.83l8.75-8.75a2,2,0,0,1,2.83,0l8.75,8.75a2,2,0,0,1-1.41,3.41Z"/><path class="cls-5" d="M734.75,1112.82a2,2,0,0,1-2-2v-28.45a2,2,0,0,1,4,0v28.45A2,2,0,0,1,734.75,1112.82Z"/><path class="cls-5" d="M668.53,1125.69a2,2,0,0,1-1.16-.37l-14.25-10.18-14.25,10.18a2,2,0,0,1-3.16-1.63v-35.22a6.41,6.41,0,0,1,6.4-6.4h22a6.41,6.41,0,0,1,6.4,6.4v35.22a2,2,0,0,1-2,2Zm-15.41-15a2,2,0,0,1,1.16.37l12.25,8.75v-31.33a2.41,2.41,0,0,0-2.4-2.4h-22a2.41,2.41,0,0,0-2.4,2.4v31.33l12.25-8.75A2,2,0,0,1,653.12,1110.68Z"/><path class="cls-5" d="M452.33,1732.92a2,2,0,0,1-1.41-.59l-15.42-15.42-15.42,15.42a2,2,0,0,1-2.83-2.83l16.84-16.84a2.06,2.06,0,0,1,2.83,0l16.84,16.84a2,2,0,0,1-1.41,3.41Z"/></svg>