<svg id="isotipo" xmlns="http://www.w3.org/2000/svg" viewBox="0 0 192 192"><defs><style>.cls-1{fill:#070928;}</style></defs><title>bienaventurados-isotipo</title><polygon class="cls-1" points="73.11 85.16 95.98 108.04 96 108.03 117.7 129.73 140.58 106.85 96 62.27 73.11 85.16"/><path class="cls-1" d="M191.93,151.54l-8.66-123.9A29.72,29.72,0,0,0,151.54.07L27.65,8.74A29.72,29.72,0,0,0,.07,40.46l8.66,123.9a29.72,29.72,0,0,0,31.72,27.57l123.9-8.66A29.72,29.72,0,0,0,191.93,151.54Zm-74.22-2.87L96,127l-21.7,21.7L32.47,106.85,96,43.33l63.53,63.53Z"/><rect class="cls-1" x="60.33" y="96.01" width="17.28" height="32.36" transform="translate(-59.13 81.62) rotate(-45)"/></svg>