<svg id="Nueva_version" data-name="Nueva version" xmlns="http://www.w3.org/2000/svg" viewBox="0 0 32 32"><defs><style>.cls-1{fill:#fff;}</style></defs><title>favicon</title><path class="cls-1" d="M6.07,15.3v-.07l0,0,0,0,0,0,0,0,0,0,0,0,0,0,0,0H5.55l0,0,0,0,0,0,0,0,0,0,0,0,0,0,0,0v.11a.37.37,0,0,0,0,.08v.11l0,0,0,0,0,0,0,0,0,0,0,0,0,0,0,0h.29l0,0,0,0,0,0,0,0,0,0,0,0,0,0,0,0v-.11s0,0,0,0,0,0,0,0Z"/><path class="cls-1" d="M11.28,9.7h0a.38.38,0,0,0,.37-.4h0a.38.38,0,1,0-.38.41Z"/><path class="cls-1" d="M21.83,6.06A.38.38,0,0,0,22,6l.68-.39.69-.4A.38.38,0,0,0,23,4.56l-1.37.79a.38.38,0,0,0,.19.72Z"/><path class="cls-1" d="M17.48,2.67h.1a.38.38,0,0,0,.37-.28L18.32,1a.38.38,0,1,0-.74-.2l-.38,1.4A.38.38,0,0,0,17.48,2.67Z"/><path class="cls-1" d="M12.09,3.34A.38.38,0,1,0,12.75,3L12,1.6a.38.38,0,1,0-.66.38Z"/><path class="cls-1" d="M7.64,7.25l1.42.39h.1a.38.38,0,0,0,.1-.75L7.84,6.51a.38.38,0,0,0-.2.74Z"/><path class="cls-1" d="M15.6,30.71a.38.38,0,1,0,0,.77h0a.38.38,0,1,0,0-.77Z"/><path class="cls-1" d="M28.66,14.46a13.45,13.45,0,0,0-1.3-3.16l-.06-.08,1-2.88a.92.92,0,0,0,0-.72.9.9,0,0,0-1-.46L20.87,8.66a5,5,0,0,0-9.62-1.44.39.39,0,0,0,.17.49A.38.38,0,0,0,12,7.51,4.19,4.19,0,0,1,20,8.8s-16.53,4-16.53,4a.83.83,0,0,0-.64.77.85.85,0,0,0,.4.75l.23.15a.39.39,0,0,0,.54-.1.38.38,0,0,0,0-.33.23.23,0,0,1,.16-.29s10-2.88,13.51-3.76c2.31-.59,9.63-2.06,9.63-2.06a.14.14,0,0,1,.16.18l-6.4,18.54a.06.06,0,0,1-.1,0s-3-2.81-4-3.71-4.69-3.65-4.69-3.65l11-7.94a.52.52,0,0,0,.14-.7.54.54,0,0,0-.68-.2L8.7,16.83,8,16.36a.39.39,0,0,0-.54.1.38.38,0,0,0,.11.54l.79.5,1.91,8.41h0V26h0v0h0v0h0l0,0h0l0,0h0l0,0h.46l0,0h0a13.46,13.46,0,0,0,2.43-1.86c1.1-1.08,1.52-1.53,1.52-1.53l5.79,4.79a.83.83,0,0,0,.55.2l.22,0a.83.83,0,0,0,.57-.54l4.95-13.92a9,9,0,0,1,1,4.85c0,6.28-4,11.44-10.23,12.45a.4.4,0,0,0-.34.42.38.38,0,0,0,.38.34h.06A13.53,13.53,0,0,0,28.66,14.46ZM10.5,23.62l-.94-5.8a.18.18,0,0,1,.1-.19L20.1,12.52a.1.1,0,0,1,.1.16l-8.7,6.26h0l0,0h0l0,0h0l0,0h0l0,0h0v0h0v0h0v0h0v0h0s-.15,1.92-.25,2.5a12.75,12.75,0,0,1-.46,1.94A.07.07,0,0,1,10.5,23.62Z"/></svg>