<svg id="Nueva_version" data-name="Nueva version" xmlns="http://www.w3.org/2000/svg" viewBox="0 0 157.7 186.01"><defs><style>.cls-1{fill:#fff;}</style></defs><title>se-isotipo-claro</title><path class="cls-1" d="M37,90.06c0-.05,0-.1,0-.15l-.05-.15-.07-.14-.08-.14-.09-.13-.11-.12-.12-.11L36.29,89,36.16,89,36,88.89l-.15-.05-.15,0-.16,0a1.6,1.6,0,0,0-.32,0l-.16,0-.15,0-.15.05-.14.07L34.5,89l-.13.09-.12.11-.11.12-.09.13-.08.14-.07.14-.05.15c0,.05,0,.1,0,.15a1.62,1.62,0,0,0,0,.32,1.62,1.62,0,0,0,0,.32c0,.05,0,.1,0,.15l.05.15.07.14.08.14.09.13.11.12.12.11.13.09.14.08.14.07.15.05.15,0,.16,0h.32l.16,0,.15,0,.15-.05.14-.07.14-.08.13-.09.12-.11.11-.12.09-.13.08-.14.07-.14.05-.15c0-.05,0-.1,0-.15s0-.1,0-.16,0-.11,0-.16,0-.11,0-.16S37,90.11,37,90.06Z"/><path class="cls-1" d="M58.95,66.42H59a1.61,1.61,0,0,0,1.54-1.7v0a1.62,1.62,0,1,0-1.62,1.71Z"/><path class="cls-1" d="M103.42,51.07a1.61,1.61,0,0,0,.8-.21l2.87-1.65L110,47.54a1.61,1.61,0,0,0-1.6-2.8l-5.8,3.32a1.62,1.62,0,0,0,.8,3Z"/><path class="cls-1" d="M85.07,36.79a1.61,1.61,0,0,0,2-1.13l1.6-5.89a1.61,1.61,0,1,0-3.12-.85l-1.6,5.89A1.61,1.61,0,0,0,85.07,36.79Z"/><path class="cls-1" d="M62.35,39.61a1.61,1.61,0,1,0,2.8-1.6l-3.27-5.72a1.61,1.61,0,1,0-2.8,1.6Z"/><path class="cls-1" d="M43.57,56.1l6,1.63a1.61,1.61,0,0,0,.85-3.12l-6-1.63a1.61,1.61,0,0,0-.85,3.12Z"/><path class="cls-1" d="M77.18,155.07a1.62,1.62,0,1,0,0,3.23h0a1.62,1.62,0,1,0,0-3.23Z"/><path class="cls-1" d="M132.26,86.51a56.71,56.71,0,0,0-5.47-13.34,1.61,1.61,0,0,0-.27-.35l4.09-12.14a3.88,3.88,0,0,0-.21-3.05,3.81,3.81,0,0,0-4.25-1.93L99.39,62A21.08,21.08,0,0,0,58.82,56a1.65,1.65,0,0,0,.7,2.06,1.62,1.62,0,0,0,2.28-.82,17.68,17.68,0,0,1,34.12,5.45c0,.11-69.73,16.76-69.73,16.76a3.49,3.49,0,0,0-2.69,3.23,3.58,3.58,0,0,0,1.69,3.17l1,.62A1.66,1.66,0,0,0,28.43,86a1.61,1.61,0,0,0,.21-1.38,1,1,0,0,1,.67-1.23s42.37-12.13,57-15.86c9.76-2.49,40.6-8.7,40.6-8.7a.57.57,0,0,1,.67.74l-27,78.19a.27.27,0,0,1-.43.12s-12.5-11.86-17-15.64c-4.71-4-19.78-15.39-19.78-15.39L109.9,73.37a2.19,2.19,0,0,0,.6-3,2.26,2.26,0,0,0-2.87-.84L48,96.49l-3.11-2a1.66,1.66,0,0,0-2.26.42,1.61,1.61,0,0,0,.47,2.27l3.34,2.12,8,35.47h0l0,.06,0,.15,0,.08,0,.06,0,.08,0,.05.05.08,0,0,.07.08,0,0h0l.11.11h0l.12.1,0,0,.08.06.05,0,.09,0,0,0,.14.06h0l.13,0h0l.11,0h.56l.08,0,.06,0,.07,0,.06,0,.07,0,.06,0,.06,0,.07,0,.05,0,.1-.08h0a56.76,56.76,0,0,0,10.25-7.86c4.66-4.55,6.4-6.44,6.4-6.44L98.25,141.6a3.5,3.5,0,0,0,5.62-1.52l20.88-58.71c3.82,7.51,4.34,12,4.34,20.47,0,26.49-17,48.26-43.14,52.53a1.67,1.67,0,0,0-1.43,1.79,1.62,1.62,0,0,0,1.6,1.44l.26,0a57.07,57.07,0,0,0,45.88-71ZM55.64,125.15l-4-24.45a.75.75,0,0,1,.41-.8L96.15,78.31a.4.4,0,0,1,.4.7l-36.7,26.41h0l-.1.08,0,0-.1.09,0,0-.06.08,0,0-.07.1,0,0,0,.08,0,0-.05.12v0l0,.1v0l0,.13h0s-.62,8.08-1,10.55a53.78,53.78,0,0,1-1.94,8.17A.3.3,0,0,1,55.64,125.15Z"/></svg>