<svg id="Nueva_version" data-name="Nueva version" xmlns="http://www.w3.org/2000/svg" viewBox="0 0 78 78"><defs><style>.cls-1{fill:#372256;}</style></defs><g id="Capa_3" data-name="Capa 3"><path class="cls-1" d="M18.16,37.53s0-.05,0-.07l0-.08,0-.07,0-.06L18,37.18l0-.06-.06,0-.06,0-.07,0-.07,0-.08,0-.07,0h-.32l-.07,0-.08,0L17,37l-.07,0-.06,0-.06,0-.05.06-.05.07,0,.06,0,.07,0,.08s0,0,0,.07,0,.06,0,.08v.16s0,0,0,.08,0,0,0,.07l0,.08,0,.07,0,.07.05.06.05.06.06.05.06,0,.07,0,.07,0,.08,0,.07,0h.32l.07,0,.08,0,.07,0,.07,0,.06,0,.06-.05,0-.06.05-.06,0-.07,0-.07,0-.08s0-.05,0-.07,0-.05,0-.08v-.16S18.16,37.56,18.16,37.53Z"/><path class="cls-1" d="M29.09,25.76h0a.8.8,0,0,0,.77-.84h0a.81.81,0,1,0-1.61.08A.8.8,0,0,0,29.09,25.76Z"/><path class="cls-1" d="M51.23,18.12a.79.79,0,0,0,.4-.1l1.43-.82,1.46-.83a.81.81,0,0,0,.3-1.1.81.81,0,0,0-1.1-.3l-2.89,1.65a.8.8,0,0,0-.29,1.1A.77.77,0,0,0,51.23,18.12Z"/><path class="cls-1" d="M42.1,11l.21,0a.8.8,0,0,0,.77-.59l.8-2.94a.79.79,0,0,0-.56-1,.8.8,0,0,0-1,.56L41.53,10A.82.82,0,0,0,42.1,11Z"/><path class="cls-1" d="M30.79,12.42a.8.8,0,0,0,.7.4.85.85,0,0,0,.4-.1.8.8,0,0,0,.29-1.1L30.55,8.77a.8.8,0,1,0-1.39.8Z"/><path class="cls-1" d="M21.44,20.62l3,.81a.76.76,0,0,0,.21,0,.8.8,0,0,0,.21-1.58l-3-.81a.82.82,0,0,0-1,.57A.8.8,0,0,0,21.44,20.62Z"/><path class="cls-1" d="M38.17,69.89a.8.8,0,0,0-.82.82.79.79,0,0,0,.83.79h0a.8.8,0,0,0,.83-.8A.81.81,0,0,0,38.17,69.89Z"/><path class="cls-1" d="M65.59,35.77a28.46,28.46,0,0,0-2.72-6.64.86.86,0,0,0-.14-.18l2-6a1.92,1.92,0,0,0-.11-1.52,1.87,1.87,0,0,0-2.11-1L49.23,23.59a10.49,10.49,0,0,0-20.2-3,.81.81,0,0,0,.35,1,.79.79,0,0,0,1.13-.4,8.8,8.8,0,0,1,17,2.71c0,.06-34.72,8.34-34.72,8.34a1.75,1.75,0,0,0-.49,3.19l.49.31a.83.83,0,0,0,1.12-.21.81.81,0,0,0,.1-.69.48.48,0,0,1,.34-.61s21.09-6,28.37-7.9C47.57,25.09,62.92,22,62.92,22a.29.29,0,0,1,.34.37L49.82,61.28a.11.11,0,0,1-.09.09.13.13,0,0,1-.12,0s-6.22-5.9-8.45-7.79-9.85-7.66-9.85-7.66L54.46,29.23a1.09,1.09,0,0,0,.3-1.47,1.12,1.12,0,0,0-1.43-.42L23.66,40.73l-1.55-1A.81.81,0,0,0,21,40a.8.8,0,0,0,.23,1.13l1.67,1.06,4,17.65h0v0a.25.25,0,0,0,0,.07s0,0,0,0l0,0s0,0,0,0v0l0,0v0l0,0h0l.06.06h0l.06.05,0,0,0,0h0l0,0h0l.07,0h0l.07,0H28l0,0h0l0,0,0,0,0,0,.05,0h0a28.33,28.33,0,0,0,5.1-3.91c2.32-2.27,3.19-3.21,3.19-3.21L48.66,63.19a1.74,1.74,0,0,0,1.14.43,1.74,1.74,0,0,0,1.66-1.19L61.85,33.2c1.9,3.74,2.16,6,2.16,10.19,0,13.19-8.49,24-21.48,26.15a.83.83,0,0,0-.71.89.81.81,0,0,0,.8.72h.13a28.4,28.4,0,0,0,17-9.54,28.23,28.23,0,0,0,6.84-18.48A28.35,28.35,0,0,0,65.59,35.77ZM27.45,55l-2-12.17a.38.38,0,0,1,.2-.4L47.61,31.68a.2.2,0,0,1,.2.35L29.55,45.18h0l-.05,0h0l-.05.05,0,0,0,0v0l0,0v0s0,0,0,0v0l0,.06h0s0,0,0,0v0a.64.64,0,0,0,0,.07h0s-.31,4-.52,5.25a26.73,26.73,0,0,1-1,4.07A.15.15,0,0,1,27.45,55Z"/></g></svg>