<svg id="Nueva_version" data-name="Nueva version" xmlns="http://www.w3.org/2000/svg" viewBox="0 0 158.56 60.22"><defs><style>.cls-1{fill:#372256;}</style></defs><title>se-logotipo</title><g id="Capa_3" data-name="Capa 3"><path class="cls-1" d="M6.22,28.75l0-.07,0-.07,0-.07,0-.06,0-.06,0-.05-.05,0-.06,0-.06,0-.07,0-.07,0-.07,0H5.34l-.07,0-.07,0-.07,0-.06,0-.06,0-.05,0,0,.05,0,.06,0,.06,0,.07,0,.07,0,.07v.07a.73.73,0,0,0,0,.15V29l0,.07,0,.07,0,.07,0,.06,0,.06,0,.05.05,0,.06,0,.06,0,.07,0,.07,0,.07,0h.29l.07,0,.07,0,.07,0,.06,0,.06,0,.05,0,0-.05,0-.06,0-.06,0-.07,0-.07,0-.07V29s0,0,0-.07,0,0,0-.07Z"/><path class="cls-1" d="M16.35,17.85h0a.74.74,0,0,0,.71-.78h0a.74.74,0,1,0-.75.79Z"/><path class="cls-1" d="M36.86,10.77a.74.74,0,0,0,.37-.1l1.32-.76,1.35-.77a.74.74,0,0,0-.74-1.29L36.49,9.38a.74.74,0,0,0,.37,1.39Z"/><path class="cls-1" d="M28.4,4.18l.2,0a.74.74,0,0,0,.72-.55L30,.94A.74.74,0,1,0,28.61.55l-.74,2.72A.74.74,0,0,0,28.4,4.18Z"/><path class="cls-1" d="M17.92,5.48a.74.74,0,1,0,1.29-.74L17.7,2.11a.74.74,0,1,0-1.29.74Z"/><path class="cls-1" d="M9.26,13.09l2.76.75.2,0a.74.74,0,0,0,.19-1.46l-2.76-.75a.74.74,0,0,0-.39,1.44Z"/><path class="cls-1" d="M24.75,58.73a.75.75,0,1,0,0,1.49h0a.75.75,0,1,0,0-1.49Z"/><path class="cls-1" d="M50.16,27.11A26.15,26.15,0,0,0,47.63,21a.74.74,0,0,0-.12-.16l1.89-5.6a1.79,1.79,0,0,0-.1-1.41,1.76,1.76,0,0,0-2-.89L35,15.83A9.72,9.72,0,0,0,16.29,13a.76.76,0,0,0,.32,1,.74.74,0,0,0,1.05-.38A8.15,8.15,0,0,1,33.4,16.11c0,.05-32.16,7.73-32.16,7.73A1.61,1.61,0,0,0,0,25.33a1.65,1.65,0,0,0,.78,1.46l.45.28a.77.77,0,0,0,1-.19.74.74,0,0,0,.1-.64.44.44,0,0,1,.31-.57S22.22,20.09,29,18.37c4.5-1.15,18.73-4,18.73-4a.26.26,0,0,1,.31.34L35.55,50.75a.12.12,0,0,1-.2.05s-5.76-5.47-7.83-7.21-9.12-7.1-9.12-7.1L39.85,21.05a1,1,0,0,0,.28-1.36,1,1,0,0,0-1.32-.39L11.32,31.71,9.88,30.8a.77.77,0,0,0-1,.19.74.74,0,0,0,.22,1l1.54,1L14.3,49.38h0v0l0,.07v.06l0,0v0l0,0v0l0,0h0l.05.05h0l.06,0,0,0,0,0h0l0,0h0l.07,0h0l.06,0h.51l0,0,0,0,0,0,0,0h0a26.18,26.18,0,0,0,4.73-3.62c2.15-2.1,3-3,3-3l11.27,9.32a1.61,1.61,0,0,0,2.59-.7l9.63-27.08c1.76,3.46,2,5.52,2,9.44,0,12.22-7.86,22.26-19.89,24.22a.77.77,0,0,0-.66.82.74.74,0,0,0,.74.66H29A26.32,26.32,0,0,0,50.16,27.11ZM14.82,44.93,13,33.66a.35.35,0,0,1,.19-.37l20.32-10a.19.19,0,0,1,.19.32L16.77,35.83h0l0,0h0l0,0v0l0,0v0l0,0v0l0,0v0l0,.06v.14h0S16.18,40,16,41.18a24.8,24.8,0,0,1-.9,3.77A.14.14,0,0,1,14.82,44.93Z"/><path class="cls-1" d="M79.62,26.49a3.23,3.23,0,0,1-1.4-1.06,2.9,2.9,0,0,1-.55-1.69h2.61a1.26,1.26,0,0,0,.39.85,1.24,1.24,0,0,0,.86.29,1.34,1.34,0,0,0,.86-.25.84.84,0,0,0,.32-.69.82.82,0,0,0-.25-.62,2,2,0,0,0-.62-.4,9.78,9.78,0,0,0-1-.36,11.4,11.4,0,0,1-1.59-.6,2.94,2.94,0,0,1-1.06-.89,2.47,2.47,0,0,1-.44-1.53,2.64,2.64,0,0,1,1-2.2,4.18,4.18,0,0,1,2.65-.8,4.23,4.23,0,0,1,2.68.8,2.85,2.85,0,0,1,1.09,2.21H82.49a1,1,0,0,0-.36-.77,1.26,1.26,0,0,0-.85-.28,1.05,1.05,0,0,0-.72.24.85.85,0,0,0-.27.68.84.84,0,0,0,.46.76,7.57,7.57,0,0,0,1.43.59,13.38,13.38,0,0,1,1.58.63,3,3,0,0,1,1.05.87,2.35,2.35,0,0,1,.44,1.48,2.89,2.89,0,0,1-.44,1.56,3.06,3.06,0,0,1-1.27,1.12,4.34,4.34,0,0,1-2,.42A5.17,5.17,0,0,1,79.62,26.49Z"/><path class="cls-1" d="M95,23.33H89.44a1.67,1.67,0,0,0,.48,1.14,1.47,1.47,0,0,0,1,.39,1.29,1.29,0,0,0,1.28-.77h2.61a3.58,3.58,0,0,1-.72,1.42,3.62,3.62,0,0,1-1.31,1,4.22,4.22,0,0,1-1.76.36,4.29,4.29,0,0,1-2.09-.5,3.57,3.57,0,0,1-1.43-1.43A4.42,4.42,0,0,1,87,22.75a4.47,4.47,0,0,1,.51-2.18,3.52,3.52,0,0,1,1.43-1.43,4.31,4.31,0,0,1,2.11-.5,4.27,4.27,0,0,1,2.06.49,3.5,3.5,0,0,1,1.41,1.39A4.23,4.23,0,0,1,95,22.62,6.33,6.33,0,0,1,95,23.33ZM92.52,22a1.26,1.26,0,0,0-.43-1A1.58,1.58,0,0,0,91,20.6,1.55,1.55,0,0,0,90,21a1.59,1.59,0,0,0-.52,1Z"/><path class="cls-1" d="M100.56,19a2.77,2.77,0,0,1,1.43-.38v2.59h-.67a2.06,2.06,0,0,0-1.38.39A1.75,1.75,0,0,0,99.48,23v3.71H97v-8h2.45v1.33A3.25,3.25,0,0,1,100.56,19Z"/><path class="cls-1" d="M80.41,35.85v2h3.28v1.89H80.41V42h3.71v2H78V33.88h6.16v2Z"/><path class="cls-1" d="M94.33,35.95v8H91.87V42.85a2.69,2.69,0,0,1-1,.85,3.09,3.09,0,0,1-1.41.32,3.16,3.16,0,0,1-1.62-.41,2.76,2.76,0,0,1-1.09-1.18,4,4,0,0,1-.39-1.82V35.95h2.44v4.34a1.76,1.76,0,0,0,.42,1.25,1.46,1.46,0,0,0,1.12.44,1.48,1.48,0,0,0,1.13-.44,1.76,1.76,0,0,0,.42-1.25V35.95Z"/><path class="cls-1" d="M96.83,37.77a3.52,3.52,0,0,1,1.42-1.43,4.24,4.24,0,0,1,2.08-.5,4,4,0,0,1,2.51.79,3.72,3.72,0,0,1,1.33,2.22h-2.61a1.25,1.25,0,0,0-1.28-.92,1.29,1.29,0,0,0-1.08.52,3,3,0,0,0,0,3,1.29,1.29,0,0,0,1.08.52,1.25,1.25,0,0,0,1.28-.92h2.61a3.76,3.76,0,0,1-1.33,2.21,3.92,3.92,0,0,1-2.51.8,4.25,4.25,0,0,1-2.08-.5,3.53,3.53,0,0,1-1.42-1.43,4.92,4.92,0,0,1,0-4.36Z"/><path class="cls-1" d="M106.17,37.77a3.47,3.47,0,0,1,1.27-1.43,3.3,3.3,0,0,1,1.79-.5,3.08,3.08,0,0,1,1.48.34,2.54,2.54,0,0,1,1,.9V35.95h2.45v8h-2.45V42.81a2.66,2.66,0,0,1-1,.9,3.08,3.08,0,0,1-1.48.34,3.24,3.24,0,0,1-1.78-.51,3.51,3.51,0,0,1-1.27-1.45,5.28,5.28,0,0,1,0-4.33Zm5,.73a1.72,1.72,0,0,0-2.48,0,2,2,0,0,0-.51,1.44,2,2,0,0,0,.51,1.46,1.71,1.71,0,0,0,2.48,0,2.31,2.31,0,0,0,0-2.89Z"/><path class="cls-1" d="M120.16,36.24a2.77,2.77,0,0,1,1.43-.38v2.59h-.67a2.06,2.06,0,0,0-1.38.39,1.75,1.75,0,0,0-.46,1.38v3.71h-2.45v-8h2.45v1.33A3.25,3.25,0,0,1,120.16,36.24Z"/><path class="cls-1" d="M123.67,34.73a1.23,1.23,0,0,1-.41-.94,1.25,1.25,0,0,1,.41-1,1.49,1.49,0,0,1,1.05-.38,1.47,1.47,0,0,1,1,.38,1.25,1.25,0,0,1,.41,1,1.23,1.23,0,0,1-.41.94,1.46,1.46,0,0,1-1,.38A1.48,1.48,0,0,1,123.67,34.73Zm2.27,1.21v8h-2.45v-8Z"/><path class="cls-1" d="M129.82,43.7a3.18,3.18,0,0,1-1.29-1,2.58,2.58,0,0,1-.53-1.4h2.42a.93.93,0,0,0,.39.67,1.37,1.37,0,0,0,.85.26,1.21,1.21,0,0,0,.71-.18.55.55,0,0,0,.25-.47.54.54,0,0,0-.36-.51,7.31,7.31,0,0,0-1.16-.37,10.82,10.82,0,0,1-1.43-.42,2.48,2.48,0,0,1-1-.7,1.91,1.91,0,0,1-.42-1.3,2.19,2.19,0,0,1,.38-1.25,2.55,2.55,0,0,1,1.12-.9,4.28,4.28,0,0,1,1.76-.33,3.52,3.52,0,0,1,2.37.75,2.91,2.91,0,0,1,1,2h-2.26a1,1,0,0,0-.37-.66,1.27,1.27,0,0,0-.81-.24,1.12,1.12,0,0,0-.66.16.53.53,0,0,0-.23.45.55.55,0,0,0,.37.52,5.83,5.83,0,0,0,1.14.34,12.74,12.74,0,0,1,1.45.45,2.51,2.51,0,0,1,1,.72,2,2,0,0,1,.44,1.33,2.11,2.11,0,0,1-.39,1.25,2.62,2.62,0,0,1-1.13.87,4.34,4.34,0,0,1-1.71.31A4.61,4.61,0,0,1,129.82,43.7Z"/><path class="cls-1" d="M141.6,41.86v2.08h-1.25a3,3,0,0,1-2.08-.65,2.69,2.69,0,0,1-.75-2.13V38h-1v-2h1V34H140v1.95h1.61v2H140v3.21a.67.67,0,0,0,.17.52.84.84,0,0,0,.57.16Z"/><path class="cls-1" d="M146.76,34l-3.45,1.45V33.71L146.76,32Zm-.44,2v8h-2.45v-8Z"/><path class="cls-1" d="M149,37.77a3.47,3.47,0,0,1,1.27-1.43,3.3,3.3,0,0,1,1.79-.5,3.08,3.08,0,0,1,1.48.34,2.54,2.54,0,0,1,1,.9V35.95H157v8H154.5V42.81a2.66,2.66,0,0,1-1,.9,3.08,3.08,0,0,1-1.48.34,3.24,3.24,0,0,1-1.78-.51A3.51,3.51,0,0,1,149,42.1a5.28,5.28,0,0,1,0-4.33Zm5,.73a1.72,1.72,0,0,0-2.48,0,2,2,0,0,0-.51,1.44,2,2,0,0,0,.51,1.46,1.71,1.71,0,0,0,2.48,0,2.31,2.31,0,0,0,0-2.89Z"/></g></svg>